<svg width="70" height="60" viewBox="0 0 70 60" fill="none" xmlns="http://www.w3.org/2000/svg">
<g clip-path="url(#clip0_10_66)">
<path d="M52.9592 20.4114C52.6574 20.4119 52.3584 20.3606 52.0794 20.2605C51.8004 20.1603 51.5469 20.0132 51.3335 19.8277C51.12 19.6423 50.9508 19.422 50.8356 19.1795C50.7203 18.9371 50.6613 18.6772 50.6618 18.4149V10.1586C50.6618 9.62908 50.9039 9.12125 51.3347 8.74682C51.7656 8.3724 52.3499 8.16205 52.9592 8.16205C53.5685 8.16205 54.1529 8.3724 54.5837 8.74682C55.0146 9.12125 55.2566 9.62908 55.2566 10.1586V18.4149C55.2555 18.9441 55.0131 19.4514 54.5825 19.8256C54.1519 20.1998 53.5682 20.4105 52.9592 20.4114ZM27.7214 39.2819C20.3798 39.2819 13.496 38.249 8.35103 36.3619C6.2824 35.6577 4.36652 34.653 2.68523 33.3908C0.623029 31.7483 0.19043 30.2299 0.19043 29.2481V10.1659C0.19043 9.63638 0.432476 9.12855 0.863322 8.75412C1.29417 8.3797 1.87852 8.16935 2.48783 8.16935C3.09714 8.16935 3.68149 8.3797 4.11234 8.75412C4.54318 9.12855 4.78523 9.63638 4.78523 10.1659V29.27C4.78523 29.3758 4.96583 29.8175 5.78483 30.4672C7.07983 31.4188 8.54918 32.1751 10.1318 32.7047C14.7518 34.38 20.9846 35.3071 27.7298 35.3071C28.338 35.3071 28.9213 35.5171 29.3514 35.8908C29.7814 36.2645 30.023 36.7715 30.023 37.3C30.023 37.8286 29.7814 38.3354 29.3514 38.7092C28.9213 39.0829 28.338 39.2929 27.7298 39.2929L27.7214 39.2819Z" fill="#989898"/>
<path d="M27.7214 58.167C20.3798 58.167 13.496 57.1341 8.34262 55.247C6.2683 54.5389 4.34694 53.5307 2.66002 52.265C0.597822 50.6225 0.165222 49.1041 0.165222 48.1222V29.0583C0.165222 28.5288 0.407269 28.021 0.838116 27.6465C1.26896 27.2721 1.85331 27.0617 2.46262 27.0617C3.07193 27.0617 3.65628 27.2721 4.08713 27.6465C4.51798 28.021 4.76002 28.5288 4.76002 29.0583V48.1368C4.76002 48.2427 4.94062 48.6843 5.75962 49.334C7.05462 50.2857 8.52397 51.042 10.1066 51.5715C14.7266 53.2468 20.9594 54.1739 27.7046 54.1739C28.3139 54.1739 28.8983 54.3843 29.3291 54.7587C29.76 55.1331 30.002 55.641 30.002 56.1705C30.002 56.7 29.76 57.2078 29.3291 57.5823C28.8983 57.9567 28.3139 58.167 27.7046 58.167H27.7214ZM27.7214 20.3895C20.3798 20.3895 13.496 19.3566 8.34262 17.4695C6.26756 16.7693 4.34564 15.7656 2.66002 14.5021C0.597822 12.8632 0.165222 11.3448 0.165222 10.3593C0.165222 9.37385 0.585222 7.8591 2.66002 6.2166C4.35164 4.9556 6.27554 3.95119 8.35102 3.2455C13.5044 1.3621 20.3882 0.3255 27.7214 0.3255C35.0546 0.3255 41.9426 1.35845 47.096 3.2455C49.1647 3.94979 51.0805 4.95446 52.7618 6.2166C54.824 7.8591 55.2566 9.3775 55.2566 10.3593C55.2566 11.3412 54.8366 12.8632 52.7618 14.5021C51.0782 15.7614 49.1629 16.7658 47.096 17.4732C41.9426 19.3566 35.063 20.3895 27.7214 20.3895ZM27.7214 4.32955C20.9762 4.32955 14.735 5.25665 10.1318 6.932C8.54323 7.46689 7.07054 8.23208 5.77642 9.195C4.96582 9.8447 4.77682 10.29 4.77682 10.3922C4.77682 10.4944 4.95742 10.9397 5.77642 11.5894C6.46522 12.1405 7.77982 12.9654 10.1234 13.8268C14.7434 15.5022 20.9762 16.4293 27.7214 16.4293C34.4666 16.4293 40.712 15.5022 45.3152 13.8268C46.9009 13.3027 48.3712 12.5459 49.6622 11.5894C50.477 10.9397 50.6618 10.4944 50.6618 10.3922C50.6618 10.29 50.4854 9.8447 49.6622 9.195C48.3679 8.24259 46.8984 7.48621 45.3152 6.95755C40.712 5.25665 34.4624 4.33685 27.7214 4.33685V4.32955Z" fill="#989898"/>
<path d="M52.2704 35.3984C46.3316 35.3984 42.3206 34.4056 40.0064 33.5734C38.0408 32.8689 34.7396 31.3505 34.7396 29.0985C34.7396 26.8464 38.0408 25.328 40.0064 24.6199C42.3206 23.7877 46.3316 22.7949 52.2704 22.7949C58.2092 22.7949 62.2202 23.7877 64.5344 24.6199C66.5042 25.328 69.8012 26.8464 69.8012 29.0985C69.8012 31.3505 66.5 32.8726 64.5344 33.577C62.2202 34.4056 58.2092 35.3984 52.2704 35.3984ZM39.977 29.0948C41.5352 29.9635 45.374 31.4053 52.2704 31.4053C59.1668 31.4053 63.0098 29.9635 64.568 29.0948C63.0098 28.2261 59.171 26.7844 52.2704 26.7844C45.3698 26.7844 41.5352 28.2261 39.977 29.0948ZM52.2704 59.6709C46.3316 59.6709 42.3206 58.6781 40.0064 57.8459C38.0408 57.1378 34.7396 55.6194 34.7396 53.3673V41.7786C34.7396 41.2491 34.9817 40.7412 35.4125 40.3668C35.8434 39.9924 36.4277 39.782 37.037 39.782C37.6463 39.782 38.2307 39.9924 38.6615 40.3668C39.0924 40.7412 39.3344 41.2491 39.3344 41.7786V52.9476C40.1954 53.6411 44.0678 55.6778 52.2788 55.6778C60.4898 55.6778 64.3622 53.6411 65.2232 52.9476V41.7786C65.2232 41.2491 65.4653 40.7412 65.8961 40.3668C66.327 39.9924 66.9113 39.782 67.5206 39.782C68.1299 39.782 68.7143 39.9924 69.1451 40.3668C69.576 40.7412 69.818 41.2491 69.818 41.7786V53.36C69.818 55.6157 66.521 57.1341 64.5512 57.8386C62.2202 58.6708 58.2092 59.6636 52.2704 59.6636V59.6709Z" fill="#989898"/>
<path d="M52.2704 47.52C46.3316 47.52 42.3206 46.5272 40.0064 45.695C38.0408 44.9869 34.7396 43.4685 34.7396 41.2164V29.635C34.7396 29.1055 34.9817 28.5976 35.4125 28.2232C35.8434 27.8488 36.4277 27.6384 37.037 27.6384C37.6463 27.6384 38.2307 27.8488 38.6615 28.2232C39.0924 28.5976 39.3344 29.1055 39.3344 29.635V40.8076C40.1954 41.4975 44.0678 43.5378 52.2788 43.5378C60.4898 43.5378 64.3622 41.4975 65.2232 40.8076V29.635C65.2232 29.1055 65.4653 28.5976 65.8961 28.2232C66.327 27.8488 66.9113 27.6384 67.5206 27.6384C68.1299 27.6384 68.7143 27.8488 69.1451 28.2232C69.576 28.5976 69.818 29.1055 69.818 29.635V41.2274C69.818 43.4794 66.521 44.9978 64.5512 45.7059C62.2202 46.5381 58.2092 47.5309 52.2704 47.5309V47.52Z" fill="#989898"/>
</g>
<defs>
<clipPath id="clip0_10_66">
<rect width="70" height="60" fill="white"/>
</clipPath>
</defs>
</svg>
