<svg width="70" height="64" viewBox="0 0 70 64" fill="none" xmlns="http://www.w3.org/2000/svg">
<path d="M63.811 0.739014H6.18905C4.59715 0.739014 3.07044 1.38785 1.9448 2.5428C0.819149 3.69774 0.186768 5.26418 0.186768 6.89752V56.1655C0.186768 57.7989 0.819149 59.3653 1.9448 60.5203C3.07044 61.6752 4.59715 62.324 6.18905 62.324H63.811C65.4029 62.324 66.9296 61.6752 68.0553 60.5203C69.1809 59.3653 69.8133 57.7989 69.8133 56.1655V6.89752C69.8133 5.26418 69.1809 3.69774 68.0553 2.5428C66.9296 1.38785 65.4029 0.739014 63.811 0.739014ZM67.4124 56.1655C67.4124 57.1455 67.0329 58.0854 66.3576 58.7784C65.6822 59.4713 64.7662 59.8606 63.811 59.8606H6.18905C5.23391 59.8606 4.31789 59.4713 3.6425 58.7784C2.96711 58.0854 2.58768 57.1455 2.58768 56.1655V13.056H67.4124V56.1655ZM2.58768 10.5926V6.89752C2.58768 5.91751 2.96711 4.97765 3.6425 4.28468C4.31789 3.59172 5.23391 3.20241 6.18905 3.20241H63.811C64.7662 3.20241 65.6822 3.59172 66.3576 4.28468C67.0329 4.97765 67.4124 5.91751 67.4124 6.89752V10.5926H2.58768ZM62.6105 6.89752C62.6105 7.14112 62.5401 7.37926 62.4082 7.58181C62.2763 7.78436 62.0888 7.94223 61.8695 8.03546C61.6501 8.12868 61.4088 8.15307 61.1759 8.10555C60.943 8.05802 60.7291 7.94072 60.5612 7.76846C60.3934 7.5962 60.279 7.37674 60.2327 7.13781C60.1864 6.89888 60.2102 6.65123 60.301 6.42616C60.3919 6.2011 60.5457 6.00874 60.7432 5.87339C60.9406 5.73805 61.1727 5.66582 61.4101 5.66582C61.7285 5.66582 62.0338 5.79558 62.2589 6.02657C62.4841 6.25756 62.6105 6.57085 62.6105 6.89752ZM59.0092 6.89752C59.0092 7.14112 58.9388 7.37926 58.8069 7.58181C58.675 7.78436 58.4875 7.94223 58.2681 8.03546C58.0488 8.12868 57.8074 8.15307 57.5745 8.10555C57.3417 8.05802 57.1278 7.94072 56.9599 7.76846C56.792 7.5962 56.6777 7.37674 56.6313 7.13781C56.585 6.89888 56.6088 6.65123 56.6996 6.42616C56.7905 6.2011 56.9444 6.00874 57.1418 5.87339C57.3392 5.73805 57.5713 5.66582 57.8087 5.66582C58.1271 5.66582 58.4324 5.79558 58.6576 6.02657C58.8827 6.25756 59.0092 6.57085 59.0092 6.89752ZM55.4078 6.89752C55.4078 7.14112 55.3374 7.37926 55.2055 7.58181C55.0736 7.78436 54.8861 7.94223 54.6667 8.03546C54.4474 8.12868 54.206 8.15307 53.9731 8.10555C53.7403 8.05802 53.5264 7.94072 53.3585 7.76846C53.1906 7.5962 53.0763 7.37674 53.03 7.13781C52.9836 6.89888 53.0074 6.65123 53.0983 6.42616C53.1891 6.2011 53.343 6.00874 53.5404 5.87339C53.7378 5.73805 53.9699 5.66582 54.2073 5.66582C54.5257 5.66582 54.8311 5.79558 55.0562 6.02657C55.2813 6.25756 55.4078 6.57085 55.4078 6.89752ZM8.58997 27.8364H61.4101C61.7285 27.8364 62.0338 27.7067 62.2589 27.4757C62.4841 27.2447 62.6105 26.9314 62.6105 26.6047V16.7511C62.6105 16.4245 62.4841 16.1112 62.2589 15.8802C62.0338 15.6492 61.7285 15.5194 61.4101 15.5194H8.58997C8.27159 15.5194 7.96625 15.6492 7.74112 15.8802C7.51599 16.1112 7.38951 16.4245 7.38951 16.7511V26.6047C7.38951 26.9314 7.51599 27.2447 7.74112 27.4757C7.96625 27.7067 8.27159 27.8364 8.58997 27.8364ZM9.79043 17.9828H60.2096V25.373H9.79043V17.9828ZM8.58997 57.3972H32.5991C32.9175 57.3972 33.2228 57.2675 33.448 57.0365C33.6731 56.8055 33.7996 56.4922 33.7996 56.1655V31.5315C33.7996 31.2049 33.6731 30.8916 33.448 30.6606C33.2228 30.4296 32.9175 30.2998 32.5991 30.2998H8.58997C8.27159 30.2998 7.96625 30.4296 7.74112 30.6606C7.51599 30.8916 7.38951 31.2049 7.38951 31.5315V56.1655C7.38951 56.4922 7.51599 56.8055 7.74112 57.0365C7.96625 57.2675 8.27159 57.3972 8.58997 57.3972ZM9.79043 32.7632H31.3987V54.9338H9.79043V32.7632ZM62.6105 33.9949C62.6105 34.3216 62.4841 34.6349 62.2589 34.8659C62.0338 35.0969 61.7285 35.2266 61.4101 35.2266H37.4009C37.0826 35.2266 36.7772 35.0969 36.5521 34.8659C36.327 34.6349 36.2005 34.3216 36.2005 33.9949C36.2005 33.6683 36.327 33.355 36.5521 33.124C36.7772 32.893 37.0826 32.7632 37.4009 32.7632H61.4101C61.7285 32.7632 62.0338 32.893 62.2589 33.124C62.4841 33.355 62.6105 33.6683 62.6105 33.9949ZM62.6105 38.9217C62.6105 39.2484 62.4841 39.5617 62.2589 39.7927C62.0338 40.0237 61.7285 40.1534 61.4101 40.1534H37.4009C37.0826 40.1534 36.7772 40.0237 36.5521 39.7927C36.327 39.5617 36.2005 39.2484 36.2005 38.9217C36.2005 38.5951 36.327 38.2818 36.5521 38.0508C36.7772 37.8198 37.0826 37.69 37.4009 37.69H61.4101C61.7285 37.69 62.0338 37.8198 62.2589 38.0508C62.4841 38.2818 62.6105 38.5951 62.6105 38.9217ZM62.6105 43.8485C62.6105 44.1752 62.4841 44.4885 62.2589 44.7195C62.0338 44.9505 61.7285 45.0802 61.4101 45.0802H37.4009C37.0826 45.0802 36.7772 44.9505 36.5521 44.7195C36.327 44.4885 36.2005 44.1752 36.2005 43.8485C36.2005 43.5219 36.327 43.2086 36.5521 42.9776C36.7772 42.7466 37.0826 42.6168 37.4009 42.6168H61.4101C61.7285 42.6168 62.0338 42.7466 62.2589 42.9776C62.4841 43.2086 62.6105 43.5219 62.6105 43.8485ZM62.6105 48.7753C62.6105 49.102 62.4841 49.4153 62.2589 49.6463C62.0338 49.8773 61.7285 50.007 61.4101 50.007H37.4009C37.0826 50.007 36.7772 49.8773 36.5521 49.6463C36.327 49.4153 36.2005 49.102 36.2005 48.7753C36.2005 48.4487 36.327 48.1354 36.5521 47.9044C36.7772 47.6734 37.0826 47.5436 37.4009 47.5436H61.4101C61.7285 47.5436 62.0338 47.6734 62.2589 47.9044C62.4841 48.1354 62.6105 48.4487 62.6105 48.7753ZM62.6105 53.7021C62.6105 54.0288 62.4841 54.3421 62.2589 54.5731C62.0338 54.8041 61.7285 54.9338 61.4101 54.9338H37.4009C37.0826 54.9338 36.7772 54.8041 36.5521 54.5731C36.327 54.3421 36.2005 54.0288 36.2005 53.7021C36.2005 53.3755 36.327 53.0622 36.5521 52.8312C36.7772 52.6002 37.0826 52.4704 37.4009 52.4704H61.4101C61.7285 52.4704 62.0338 52.6002 62.2589 52.8312C62.4841 53.0622 62.6105 53.3755 62.6105 53.7021Z" fill="#989898"/>
</svg>
