<svg width="70" height="73" viewBox="0 0 70 73" fill="none" xmlns="http://www.w3.org/2000/svg">
<g clip-path="url(#clip0_10_49)">
<path d="M68.5043 2.03552C68.0256 2.03552 67.547 2.37478 67.547 2.9402V18.772C67.547 19.2244 67.906 19.6767 68.5043 19.6767C69.1026 19.6767 69.4615 19.3375 69.4615 18.772V2.9402C69.4615 2.37478 68.9829 2.03552 68.5043 2.03552Z" fill="#989898"/>
<path d="M68.5043 21.2599C68.0256 21.2599 67.547 21.5991 67.547 22.1646V24.4263C67.547 24.8786 67.906 25.3309 68.5043 25.3309C69.1026 25.3309 69.4615 24.9917 69.4615 24.4263V22.1646C69.4615 21.5991 68.9829 21.2599 68.5043 21.2599Z" fill="#989898"/>
<path d="M6.28204 64.232H4.84614V62.7619C4.84614 62.3096 4.48717 61.8572 3.88888 61.8572C3.29059 61.8572 2.93161 62.1965 2.93161 62.7619V64.232H1.49572C1.01708 64.232 0.538452 64.5713 0.538452 65.1367C0.538452 65.7021 0.897426 66.0414 1.49572 66.0414H3.05127V67.5115C3.05127 67.9638 3.41025 68.4161 4.00854 68.4161C4.60683 68.4161 4.9658 68.0769 4.9658 67.5115V66.0414H6.52136C6.99999 66.0414 7.47862 65.7021 7.47862 65.1367C7.47862 64.5713 6.76067 64.232 6.28204 64.232Z" fill="#989898"/>
<path d="M64.9145 29.1758H63.359V27.7057C63.359 27.2534 63 26.801 62.4017 26.801C61.8034 26.801 61.4444 27.1403 61.4444 27.7057V29.1758H59.8889C59.4102 29.1758 58.9316 29.5151 58.9316 30.0805C58.9316 30.6459 59.2906 30.9852 59.8889 30.9852H61.4444V32.4553C61.4444 32.9076 61.8034 33.3599 62.4017 33.3599C63 33.3599 63.359 33.0207 63.359 32.4553V30.9852H64.9145C65.3931 30.9852 65.8718 30.6459 65.8718 30.0805C65.8718 29.5151 65.3931 29.1758 64.9145 29.1758Z" fill="#989898"/>
<path d="M25.4273 7.12436H42.1795C42.6581 7.12436 43.1367 6.7851 43.1367 6.21968C43.1367 5.65426 42.7778 5.315 42.1795 5.315H25.4273C24.9487 5.315 24.4701 5.65426 24.4701 6.21968C24.4701 6.7851 24.9487 7.12436 25.4273 7.12436Z" fill="#989898"/>
<path d="M35 61.9703C33.2051 61.9703 31.6496 63.3274 31.6496 65.1367C31.6496 66.9461 33.0855 68.3031 35 68.3031C36.9145 68.3031 38.3504 66.9461 38.3504 65.1367C38.3504 63.3274 36.7949 61.9703 35 61.9703ZM35 66.4937C34.1624 66.4937 33.4444 65.8152 33.4444 65.0236C33.4444 64.232 34.1624 63.5535 35 63.5535C35.8376 63.5535 36.5555 64.232 36.5555 65.0236C36.5555 65.8152 35.8376 66.4937 35 66.4937Z" fill="#989898"/>
<path d="M52.9487 25.1048C53.547 25.1048 54.2649 25.2179 54.8632 25.3309C54.9829 25.3309 55.1026 25.3309 55.2222 25.3309H55.3419C55.8205 25.3309 56.2991 24.9917 56.2991 24.4263V15.0402V1.47011C56.2991 1.01777 55.9402 0.56543 55.3419 0.56543H12.2649C11.7863 0.56543 11.3077 0.904683 11.3077 1.47011V71.5825C11.3077 72.0349 11.6667 72.4872 12.2649 72.4872H55.3419C55.8205 72.4872 56.2991 72.1479 56.2991 71.5825V46.7039V37.3179C56.2991 36.8656 55.9402 36.4132 55.3419 36.4132H55.2222C55.1026 36.4132 54.9829 36.4132 54.8632 36.4132C54.2649 36.6394 53.6667 36.6394 52.9487 36.6394C49.4786 36.6394 46.6068 33.9254 46.6068 30.6459C46.6068 27.3665 49.4786 25.1048 52.9487 25.1048ZM38.5897 21.9384L40.3846 25.2179C40.1453 25.7833 39.906 26.3487 39.6667 26.9141L35.9573 28.045C35.5983 28.1581 35.359 28.4973 35.359 28.8366V33.3599C35.359 33.6992 35.5983 34.0385 35.9573 34.1515L39.6667 35.2824C39.906 35.8478 40.1453 36.4132 40.3846 36.9786L38.5897 40.2581C38.4701 40.5974 38.4701 40.9366 38.7094 41.2759L42.0598 44.4422C42.2991 44.6684 42.7778 44.7815 43.1367 44.5553L46.6068 42.859C47.2051 43.0852 47.8034 43.3114 48.4017 43.5376L49.5983 47.0432C49.7179 47.3824 50.0769 47.6086 50.4359 47.6086H54.2649V57.2208H45.1709V54.3937C45.1709 54.0544 44.9316 53.7152 44.5726 53.6021L41.5812 52.8105C41.4615 52.3581 41.2222 52.0189 41.1025 51.5666L42.5384 48.9656C42.6581 48.6264 42.6581 48.2871 42.4188 47.9478L39.6667 45.3469C39.4273 45.1207 38.9487 45.0076 38.5897 45.2338L35.8376 46.5908C35.4786 46.3647 35 46.2516 34.5214 46.1385L33.5641 43.3114C33.4444 42.9721 33.0855 42.746 32.7265 42.746H28.7778C28.4188 42.746 28.0598 42.9721 27.9402 43.3114L26.9829 46.1385C26.5043 46.2516 26.1453 46.4777 25.6667 46.5908L22.7949 45.2338C22.4359 45.1207 22.0769 45.1207 21.7179 45.3469L18.9658 47.9478C18.7265 48.174 18.6068 48.6264 18.8461 48.9656L20.282 51.5666C20.0427 51.9058 19.9231 52.3581 19.8034 52.8105L16.812 53.7152C16.453 53.8282 16.2137 54.1675 16.2137 54.5068V57.3339H13.2222V11.6477H54.5043V14.4748H50.6752C50.3162 14.4748 49.9573 14.701 49.8376 15.0402L48.641 18.5459C48.0427 18.772 47.4444 18.9982 46.8461 19.2244L43.3761 17.5281C43.0171 17.415 42.6581 17.415 42.2991 17.6412L38.9487 20.8076C38.4701 21.1468 38.4701 21.5992 38.5897 21.9384ZM37.2735 57.4469C37.2735 57.1077 37.3931 56.7684 37.3931 56.4292C37.3931 52.9236 34.4017 50.0965 30.6923 50.0965C26.9829 50.0965 23.9914 52.9236 23.9914 56.4292C23.9914 56.7684 23.9914 57.1077 24.1111 57.4469H18.0085V55.1853L20.7607 54.2806C21 54.1675 21.2393 53.9413 21.359 53.7152C21.5983 53.0367 21.8376 52.4712 22.0769 52.0189C22.1966 51.7927 22.1966 51.4535 22.0769 51.2273L20.7607 48.7394L22.5555 47.0432L25.188 48.2871C25.4273 48.4002 25.7863 48.4002 26.0256 48.2871C26.6239 47.9478 27.2222 47.7217 27.8205 47.6086C28.0598 47.4955 28.2991 47.3824 28.4188 47.0432L29.3761 44.4422H32.0085L32.9658 47.0432C33.0855 47.2693 33.3248 47.4955 33.5641 47.6086C34.282 47.8348 34.8803 48.0609 35.359 48.2871C35.5983 48.4002 35.9573 48.4002 36.1966 48.2871L38.829 47.0432L40.6239 48.7394L39.3077 51.2273C39.188 51.4535 39.188 51.7927 39.3077 52.0189C39.6667 52.5843 39.906 53.1497 40.0256 53.7152C40.1453 53.9413 40.3846 54.1675 40.6239 54.2806L43.3761 55.1853V57.4469H37.2735ZM54.5043 2.60095V9.95145H13.2222V2.60095H54.5043ZM13.2222 71.0171V59.1432H25.188C25.547 59.1432 25.7863 58.917 25.906 58.6909C26.0256 58.4647 26.0256 58.2385 26.0256 58.0124C25.7863 57.56 25.7863 56.9946 25.7863 56.4292C25.7863 53.8282 28.0598 51.7927 30.6923 51.7927C33.3248 51.7927 35.5983 53.9413 35.5983 56.4292C35.5983 56.9946 35.4786 57.4469 35.359 58.0124C35.1196 58.5778 35.5983 59.1432 36.1966 59.1432H54.5043V71.0171H13.2222ZM44.9316 31.0983C44.9316 35.2824 48.5214 38.788 53.0684 38.788C53.547 38.788 54.0256 38.6749 54.5043 38.6749V46.1385H51.1538L49.9573 42.859C49.8376 42.6329 49.5983 42.4067 49.359 42.2936C48.5214 42.0675 47.8034 41.7282 47.0855 41.3889C46.8461 41.2759 46.4872 41.2759 46.2479 41.3889L42.8974 42.9721L40.3846 40.5974L42.0598 37.431C42.1795 37.2048 42.1795 36.8656 42.0598 36.6394C41.7008 35.9609 41.3419 35.1693 41.1025 34.4908C40.9829 34.2646 40.7436 34.0385 40.5043 33.9254L37.0342 32.7945V29.402L40.5043 28.2711C40.7436 28.1581 40.9829 27.9319 41.1025 27.7057C41.3419 26.9141 41.7008 26.1225 42.0598 25.5571C42.1795 25.3309 42.1795 24.9917 42.0598 24.7655L40.3846 21.5992L42.8974 19.2244L46.2479 20.8076C46.4872 20.9206 46.8461 20.9206 47.0855 20.8076C47.8034 20.4683 48.5214 20.1291 49.359 19.9029C49.5983 19.7898 49.8376 19.6767 49.9573 19.3375L51.1538 15.9449H54.3846V23.4085C53.906 23.2954 53.4273 23.2954 52.9487 23.2954C48.5214 23.4085 44.9316 26.9141 44.9316 31.0983Z" fill="#989898"/>
</g>
<defs>
<clipPath id="clip0_10_49">
<rect width="70" height="72.8767" fill="white"/>
</clipPath>
</defs>
</svg>
