<svg width="70" height="51" viewBox="0 0 70 51" fill="none" xmlns="http://www.w3.org/2000/svg">
<path d="M3.21582 0.68227C2.24603 0.68227 1.39947 1.18957 0.852918 1.88083C0.306356 2.5721 0.00854492 3.45704 0.00854492 4.41391V32.4589C0.00854492 33.4157 0.306355 34.3028 0.852918 34.9941C1.39947 35.6853 2.24603 36.1905 3.21582 36.1905H23.5734L22.9457 40.4612H17.2849C15.7113 40.4612 14.2445 41.2627 13.4344 42.5782L12.5392 44.0291C11.6852 45.4158 12.7778 47.2886 14.4357 47.2886H44.8196C46.4775 47.2886 47.5613 45.4158 46.7073 44.0291L45.8143 42.5782C45.0042 41.2627 43.5441 40.4612 41.9704 40.4612H36.303L35.6797 36.1905H46.2232C46.8517 36.1929 47.3618 35.6954 47.3594 35.0825C47.3569 34.4728 46.8482 33.9806 46.2232 33.9829H3.21582C3.03367 33.9829 2.85285 33.8996 2.64774 33.6401C2.23895 32.9601 2.2753 32.4712 2.27197 31.7084H46.2232C46.8482 31.7109 47.3569 31.2186 47.3594 30.609C47.3618 29.996 46.8517 29.4985 46.2232 29.501H2.27198V4.41381C2.27136 3.54531 2.8048 2.90912 3.21582 2.88964H56.0307C56.2128 2.88964 56.4025 2.96443 56.6076 3.22383C56.8127 3.48345 56.9834 3.91374 56.9834 4.41381V14.0524C56.9857 14.6594 57.4904 15.1507 58.1129 15.1518C58.7379 15.1542 59.2466 14.662 59.249 14.0524V4.41381C59.249 3.45697 58.9512 2.572 58.4046 1.88073C57.8581 1.1895 57.0005 0.682068 56.0307 0.682068L3.21582 0.68227ZM9.34742 4.62516C8.85744 5.00187 8.77242 5.69418 9.15732 6.17305C9.54681 6.65701 9.77403 7.25844 9.77402 7.92573C9.774 9.50868 8.48155 10.7693 6.85852 10.7693C6.18621 10.7693 5.57997 10.551 5.088 10.1829C4.59239 9.81158 3.88181 9.9021 3.50095 10.3856C3.11852 10.8694 3.21164 11.5641 3.70872 11.9356C4.58038 12.5878 5.67935 12.9769 6.85853 12.9769C9.7048 12.9769 12.0374 10.7018 12.0374 7.92583C12.0375 6.75566 11.6267 5.67022 10.9367 4.81279C10.1948 4.22356 9.79207 4.32353 9.34742 4.62516ZM15.6647 12.1619L14.6523 11.1767C14.5856 11.1116 14.6164 11.1109 14.6368 11.0623C14.6573 11.014 14.6334 11.0064 14.7275 11.0064H16.1664C17.2287 11.0064 18.1116 10.1428 18.1116 9.10713V6.753C18.1116 5.71738 17.2284 4.85367 16.1664 4.85367H14.7275C14.1059 4.85599 13.6026 5.34689 13.6002 5.95312C13.5979 6.56269 14.1025 7.05887 14.7275 7.06125H15.8482V8.79666H14.7275C13.7205 8.7967 12.8746 9.43272 12.5392 10.2238C12.2038 11.015 12.3468 12.0475 13.0587 12.7418L13.8433 13.5071L12.5812 14.7381L11.7965 13.9706C11.0847 13.2764 10.026 13.139 9.21481 13.4662C8.40367 13.7933 7.75377 14.6183 7.75374 15.6004V16.6848H5.97437V15.6004C5.97664 14.9865 5.46537 14.4887 4.83602 14.4923C4.21099 14.4947 3.70628 14.9908 3.70872 15.6004V16.9952C3.70872 18.0308 4.59427 18.8923 5.65608 18.8923H8.06981C9.13133 18.8923 10.0172 18.0307 10.0172 16.9952V15.6004C10.0172 15.5087 10.0338 15.5233 10.0835 15.5032C10.1332 15.4833 10.125 15.4615 10.1918 15.5296L11.2019 16.517C11.953 17.2497 13.2094 17.2497 13.9605 16.517L15.6735 14.8549C16.4244 14.1225 16.4243 12.8969 15.6735 12.1644H15.669L15.6647 12.1619ZM28.4208 5.35823C27.3586 5.35823 26.4735 6.22144 26.4735 7.25746V8.65011C26.4735 8.74239 26.4566 8.72948 26.4071 8.74933C26.3577 8.76917 26.3568 8.78671 26.29 8.72288L25.2798 7.73668C24.5288 7.00404 23.2834 7.00404 22.5323 7.73668L20.8193 9.39882C20.0683 10.1314 20.0682 11.3546 20.8193 12.0871L21.8294 13.0744C21.8963 13.1396 21.8742 13.1403 21.8537 13.1889C21.8332 13.2369 21.8576 13.2534 21.7631 13.2534H20.3264C19.2641 13.2534 18.379 14.1145 18.379 15.1505V17.5068C18.379 18.5428 19.2641 19.4039 20.3264 19.4039H21.7631C21.8576 19.4039 21.8333 19.4138 21.8537 19.4624C21.8742 19.5107 21.8963 19.5117 21.8295 19.5769L20.8193 20.5621C20.0683 21.2946 20.0682 22.5178 20.8193 23.2504L22.5324 24.9125C23.2834 25.6451 24.5288 25.6451 25.2799 24.9125L26.29 23.9273C26.3568 23.8622 26.3577 23.8837 26.4072 23.9009C26.4566 23.9207 26.4735 23.9041 26.4735 23.9981V25.3907C26.4735 26.4267 27.3586 27.29 28.4208 27.29H30.8346C31.8968 27.29 32.7819 26.4267 32.7819 25.3907V23.9981C32.7819 23.9058 32.7989 23.921 32.8482 23.9009C32.8976 23.881 32.8897 23.8592 32.9565 23.9273L33.9689 24.9125C34.7199 25.6451 35.9741 25.6451 36.7252 24.9125L38.4294 23.2504C39.1804 22.5178 39.1804 21.2946 38.4294 20.5621L37.4193 19.5769C37.3525 19.5117 37.3811 19.511 37.4016 19.4624C37.422 19.4145 37.3999 19.4039 37.4945 19.4039H38.9312C39.9935 19.4039 40.8764 18.5428 40.8764 17.5068V15.1505C40.8764 14.1145 39.9935 13.2534 38.9312 13.2534H37.4945C37.4 13.2534 37.4221 13.2369 37.4016 13.1889C37.3813 13.1406 37.3524 13.1396 37.4192 13.0744L38.4294 12.0871C39.1804 11.3546 39.1805 10.1313 38.4294 9.39882L36.7252 7.73668C35.9741 7.00404 34.7199 7.00404 33.9689 7.73668L32.9565 8.72187C32.8897 8.78703 32.8976 8.76783 32.8482 8.74832C32.7987 8.72847 32.7819 8.7384 32.7819 8.6491V7.25645C32.7819 6.22043 31.8969 5.35722 30.8346 5.35722L28.4208 5.35823ZM28.7391 7.56792H30.5184V8.65011C30.5184 9.63192 31.1686 10.4589 31.9795 10.7865C32.7904 11.114 33.8494 10.983 34.5612 10.2885L35.3548 9.52317L36.6081 10.7456L35.8234 11.5195C35.1116 12.2137 34.968 13.2379 35.3039 14.0289C35.6398 14.8198 36.4877 15.4538 37.4944 15.4538H38.6129V17.1978H37.4944C36.4878 17.1979 35.6398 17.8341 35.3039 18.625C34.968 19.4159 35.1116 20.4466 35.8234 21.1408L36.6081 21.9083L35.3459 23.1371L34.5612 22.3719C33.8494 21.6776 32.7904 21.5397 31.9795 21.8673C31.1686 22.1947 30.5185 23.0198 30.5184 24.0016V25.0924H28.7391V24.0016C28.7391 23.0198 28.0867 22.1949 27.2758 21.8673C26.4649 21.5399 25.4059 21.6775 24.6941 22.3719L23.9094 23.1371L22.6473 21.9083L23.4342 21.1408C24.146 20.4466 24.2785 19.4159 23.9426 18.625C23.6067 17.8341 22.7698 17.1979 21.7631 17.1978H20.6425V15.4538H21.7631C22.7698 15.4538 23.6067 14.8198 23.9426 14.0289C24.2785 13.2379 24.146 12.2137 23.4342 11.5195L22.6406 10.7456L23.9094 9.52317L24.6941 10.2885C25.406 10.9828 26.4649 11.1142 27.2758 10.7865C28.0867 10.4591 28.7391 9.63192 28.7391 8.65011V7.56792ZM29.6232 11.2737C26.7769 11.2737 24.4531 13.5509 24.4532 16.327C24.4532 19.103 26.777 21.378 29.6232 21.378C32.4695 21.378 34.8043 19.103 34.8044 16.327C34.8044 13.5509 32.4696 11.2737 29.6232 11.2737ZM29.6232 13.4834C31.2463 13.4834 32.5388 14.7439 32.5387 16.327C32.5387 17.9099 31.2463 19.1704 29.6232 19.1704C28.0002 19.1704 26.7078 17.9099 26.7078 16.327C26.7077 14.7439 28.0002 13.4834 29.6232 13.4834ZM53.0157 17.3617C51.154 17.3617 49.625 18.8616 49.625 20.6773V41.5865C49.6244 41.6064 49.6244 41.6282 49.625 41.649V46.6203C49.625 48.436 51.154 49.9273 53.0157 49.9273H66.6007C68.4624 49.9273 69.9915 48.436 69.9915 46.6203V20.6773C69.9915 18.8616 68.4624 17.3617 66.6007 17.3617H53.0157ZM53.0157 19.5692H66.6007C67.2392 19.5692 67.728 20.0546 67.728 20.6773V40.541H51.8796V20.6773C51.8796 20.0546 52.3773 19.5692 53.0157 19.5692ZM59.2733 27.578L58.146 31.9953C57.9953 32.5844 58.3607 33.1816 58.9639 33.3319C59.5685 33.4788 60.1812 33.1213 60.3343 32.5321L61.4704 28.117C61.6206 27.5253 61.2505 26.9269 60.6438 26.7805C59.9561 26.6333 59.502 26.919 59.2733 27.578ZM55.0449 28.1731L53.9087 29.2726C53.464 29.7041 53.464 30.4061 53.9087 30.8377L55.0449 31.9371C55.4863 32.3652 56.1993 32.3652 56.6407 31.9371C57.0797 31.5066 57.0797 30.8111 56.6407 30.3806L56.307 30.0552L56.6407 29.7298C57.0797 29.2993 57.0797 28.6038 56.6407 28.1733C55.9945 27.699 55.472 27.7864 55.0449 28.1731ZM62.9647 28.1731C62.5257 28.6036 62.5257 29.2991 62.9647 29.7296L63.3006 30.055L62.9647 30.3804C62.5257 30.8109 62.5257 31.5063 62.9647 31.9368C63.4071 32.3707 64.1269 32.3707 64.5694 31.9368L65.6967 30.8374C66.1414 30.4058 66.1414 29.7038 65.6967 29.2723L64.5694 28.1728C63.9213 27.6961 63.3937 27.7885 62.9647 28.1731ZM25.8568 36.1905H33.3919L34.0175 40.4612H25.229L25.8568 36.1905ZM17.2849 42.6687H41.9704C42.7533 42.6687 43.4735 43.0675 43.8758 43.7207L44.7113 45.0811H14.544L15.3795 43.7207C15.7818 43.0675 16.5021 42.6687 17.2849 42.6687ZM51.8796 42.7504H67.728V46.6201C67.728 47.2428 67.2392 47.7195 66.6007 47.7195H53.0157C52.3773 47.7195 51.8796 47.2428 51.8796 46.6201V42.7504ZM59.8016 43.8564C59.1783 43.8576 58.6733 44.35 58.6721 44.9579C58.6696 45.5683 59.1757 46.0649 59.8016 46.0661C60.4301 46.0685 60.9402 45.5709 60.9377 44.9579C60.9365 44.3475 60.4275 43.854 59.8016 43.8564Z" fill="#989898"/>
</svg>
